<svg width="42" height="42" viewBox="0 0 42 42" fill="none" xmlns="http://www.w3.org/2000/svg">
    <path
        d="M9.01009 11.119C9.01009 11.81 8.44996 12.3701 7.75901 12.3701C7.06806 12.3701 6.50794 11.81 6.50794 11.119C6.50794 10.4281 7.06806 9.86794 7.75901 9.86794C8.44996 9.86794 9.01009 10.4281 9.01009 11.119Z"
        fill="url(#paint0_linear)" />
    <path fill-rule="evenodd" clip-rule="evenodd"
        d="M3.25586 8.3656C3.25586 7.3991 4.03936 6.6156 5.00586 6.6156H31.3636C32.3301 6.6156 33.1136 7.3991 33.1136 8.3656V13.8721C33.1136 14.8386 32.3301 15.6221 31.3636 15.6221H5.00586C4.03936 15.6221 3.25586 14.8386 3.25586 13.8721V8.3656ZM5.00586 8.1156C4.86779 8.1156 4.75586 8.22753 4.75586 8.3656V13.8721C4.75586 14.0101 4.86779 14.1221 5.00586 14.1221H31.3636C31.5016 14.1221 31.6136 14.0101 31.6136 13.8721V8.3656C31.6136 8.22753 31.5016 8.1156 31.3636 8.1156H5.00586Z"
        fill="url(#paint1_linear)" />
    <path
        d="M7.75901 22.2509C8.44996 22.2509 9.01009 21.6908 9.01009 20.9998C9.01009 20.3089 8.44996 19.7487 7.75901 19.7487C7.06806 19.7487 6.50794 20.3089 6.50794 20.9998C6.50794 21.6908 7.06806 22.2509 7.75901 22.2509Z"
        fill="url(#paint2_linear)" />
    <path
        d="M9.01009 30.8808C9.01009 31.5718 8.44996 32.1319 7.75901 32.1319C7.06806 32.1319 6.50794 31.5718 6.50794 30.8808C6.50794 30.1899 7.06806 29.6298 7.75901 29.6298C8.44996 29.6298 9.01009 30.1899 9.01009 30.8808Z"
        fill="url(#paint3_linear)" />
    <path
        d="M5.00586 16.4966C4.03936 16.4966 3.25586 17.2801 3.25586 18.2466V23.7531C3.25586 24.7196 4.03936 25.5031 5.00586 25.5031H20.2544C20.6686 25.5031 21.0044 25.1673 21.0044 24.7531C21.0044 24.3389 20.6686 24.0031 20.2544 24.0031H5.00586C4.86779 24.0031 4.75586 23.8912 4.75586 23.7531V18.2466C4.75586 18.1086 4.86779 17.9966 5.00586 17.9966H31.3636C31.5016 17.9966 31.6136 18.1086 31.6136 18.2466V20.4218C31.6136 20.8361 31.9494 21.1718 32.3636 21.1718C32.7778 21.1718 33.1136 20.8361 33.1136 20.4218V18.2466C33.1136 17.2801 32.3301 16.4966 31.3636 16.4966H5.00586Z"
        fill="url(#paint4_linear)" />
    <path
        d="M5.00586 27.8777C4.86779 27.8777 4.75586 27.9896 4.75586 28.1277V33.6342C4.75586 33.7722 4.86779 33.8842 5.00586 33.8842H14.6106C15.0248 33.8842 15.3606 34.2199 15.3606 34.6342C15.3606 35.0484 15.0248 35.3842 14.6106 35.3842H5.00586C4.03936 35.3842 3.25586 34.6007 3.25586 33.6342V28.1277C3.25586 27.1612 4.03936 26.3777 5.00586 26.3777H14.6106C15.0248 26.3777 15.3606 26.7135 15.3606 27.1277C15.3606 27.5419 15.0248 27.8777 14.6106 27.8777H5.00586Z"
        fill="url(#paint5_linear)" />
    <path fill-rule="evenodd" clip-rule="evenodd"
        d="M20.8728 27.9032C20.8245 27.9032 20.7764 27.9041 20.7285 27.906C18.8214 27.9817 17.2986 29.5517 17.2986 31.4774C17.2986 33.4514 18.8988 35.0517 20.8728 35.0517L20.9138 35.0514H35.129L35.1699 35.0517C37.144 35.0517 38.7442 33.4514 38.7442 31.4774C38.7442 29.5516 37.2212 27.9816 35.3139 27.906C35.2662 27.9041 35.2182 27.9032 35.1699 27.9032C34.7233 27.9032 34.2958 27.9851 33.9017 28.1347C33.82 27.6303 33.675 27.1471 33.475 26.6936C32.5517 24.5992 30.4574 23.1372 28.0215 23.1372C25.5856 23.1372 23.4912 24.5992 22.5679 26.6936C22.368 27.1472 22.2229 27.6303 22.1413 28.1348C21.7471 27.9851 21.3195 27.9032 20.8728 27.9032ZM20.9053 33.5514L20.8969 33.5515L20.8728 33.5517C19.7272 33.5517 18.7986 32.623 18.7986 31.4774C18.7986 30.3318 19.7272 29.4032 20.8728 29.4032C21.1348 29.4032 21.3821 29.451 21.6088 29.5371L23.328 30.1899L23.622 28.3745C23.9651 26.2555 25.8057 24.6372 28.0215 24.6372C30.2372 24.6372 32.0778 26.2555 32.421 28.3745L32.7149 30.1896L34.4341 29.537C34.6608 29.451 34.908 29.4032 35.1699 29.4032C36.3155 29.4032 37.2442 30.3318 37.2442 31.4774C37.2442 32.623 36.3155 33.5517 35.1699 33.5517L35.1459 33.5515L35.1374 33.5514H20.9053Z"
        fill="url(#paint6_linear)" />
    <defs>
        <linearGradient id="paint0_linear" x1="3.69867" y1="4.89825" x2="22.5688" y2="37.2522"
            gradientUnits="userSpaceOnUse">
            <stop offset="0.259336" stop-color="#FFDB6E" />
            <stop offset="1" stop-color="#FFBC5E" />
        </linearGradient>
        <linearGradient id="paint1_linear" x1="1.17724" y1="18.7359" x2="2.78931" y2="19.2346"
            gradientUnits="userSpaceOnUse">
            <stop offset="0.259336" stop-color="#FFDB6E" />
            <stop offset="1" stop-color="#FFBC5E" />
        </linearGradient>
        <linearGradient id="paint2_linear" x1="1.17724" y1="18.7359" x2="2.78931" y2="19.2346"
            gradientUnits="userSpaceOnUse">
            <stop offset="0.259336" stop-color="#FFDB6E" />
            <stop offset="1" stop-color="#FFBC5E" />
        </linearGradient>
        <linearGradient id="paint3_linear" x1="3.26667" y1="0.900025" x2="27.6816" y2="36.6089"
            gradientUnits="userSpaceOnUse">
            <stop offset="0.259336" stop-color="#FFDB6E" />
            <stop offset="1" stop-color="#FFBC5E" />
        </linearGradient>
        <linearGradient id="paint4_linear" x1="3.26667" y1="0.900025" x2="27.6816" y2="36.6089"
            gradientUnits="userSpaceOnUse">
            <stop offset="0.259336" stop-color="#FFDB6E" />
            <stop offset="1" stop-color="#FFBC5E" />
        </linearGradient>
        <linearGradient id="paint5_linear" x1="14.1208" y1="12.223" x2="27.511" y2="27.0155"
            gradientUnits="userSpaceOnUse">
            <stop offset="0.259336" stop-color="#FFDB6E" />
            <stop offset="1" stop-color="#FFBC5E" />
        </linearGradient>
        <linearGradient id="paint6_linear" x1="14.1208" y1="12.223" x2="27.511" y2="27.0155"
            gradientUnits="userSpaceOnUse">
            <stop offset="0.259336" stop-color="#FFDB6E" />
            <stop offset="1" stop-color="#FFBC5E" />
        </linearGradient>
        <linearGradient id="paint7_linear" x1="16.2288" y1="14.5995" x2="25.5157" y2="24.8592"
            gradientUnits="userSpaceOnUse">
            <stop offset="0.259336" stop-color="#FFDB6E" />
            <stop offset="1" stop-color="#FFBC5E" />
        </linearGradient>
        <linearGradient id="paint8_linear" x1="16.2288" y1="14.5995" x2="25.5157" y2="24.8592"
            gradientUnits="userSpaceOnUse">
            <stop offset="0.259336" stop-color="#FFDB6E" />
            <stop offset="1" stop-color="#FFBC5E" />
        </linearGradient>
    </defs>
</svg>